<svg xmlns="http://www.w3.org/2000/svg" viewBox="0 0 295 72" width="295" height="72" role="img" aria-label="9rayti+ logo">
  <defs>
    <linearGradient id="bk" x1="0" y1="0" x2="1" y2="1"><stop offset="0%" stop-color="#3B82F6"/><stop offset="55%" stop-color="#4F46E5"/><stop offset="100%" stop-color="#7C3AED"/></linearGradient>
    <linearGradient id="sp" x1="0" y1="0" x2="1" y2="0"><stop offset="0%" stop-color="#1D4ED8"/><stop offset="100%" stop-color="#4338CA"/></linearGradient>
    <linearGradient id="shine" x1="0" y1="0" x2="0" y2="1"><stop offset="0%" stop-color="#fff" stop-opacity="0.3"/><stop offset="100%" stop-color="#fff" stop-opacity="0"/></linearGradient>
    <linearGradient id="cp" x1="0" y1="0" x2="1" y2="1"><stop offset="0%" stop-color="#4F46E5"/><stop offset="100%" stop-color="#7C3AED"/></linearGradient>
    <linearGradient id="tsl" x1="0" y1="0" x2="0" y2="1"><stop offset="0%" stop-color="#FCD34D"/><stop offset="100%" stop-color="#F59E0B"/></linearGradient>
    <linearGradient id="txt" x1="0" y1="0" x2="1" y2="0"><stop offset="0%" stop-color="#3B82F6"/><stop offset="50%" stop-color="#6366F1"/><stop offset="100%" stop-color="#8B5CF6"/></linearGradient>
    <linearGradient id="pl" x1="0" y1="0" x2="1" y2="1"><stop offset="0%" stop-color="#F97316"/><stop offset="100%" stop-color="#EF4444"/></linearGradient>
    <linearGradient id="shim" x1="0" y1="0" x2="1" y2="0">
      <stop offset="0%"   stop-color="#fff" stop-opacity="0"/>
      <stop offset="42%"  stop-color="#fff" stop-opacity="0"/>
      <stop offset="50%"  stop-color="#fff" stop-opacity="0.5"/>
      <stop offset="58%"  stop-color="#fff" stop-opacity="0"/>
      <stop offset="100%" stop-color="#fff" stop-opacity="0"/>
      <animateTransform attributeName="gradientTransform" type="translate" values="-1 0;2 0" dur="3.2s" repeatCount="indefinite"/>
    </linearGradient>
    <filter id="glow" x="-20%" y="-20%" width="140%" height="140%"><feGaussianBlur stdDeviation="2" result="b"/><feMerge><feMergeNode in="b"/><feMergeNode in="SourceGraphic"/></feMerge></filter>
    <filter id="tg" x="-5%" y="-30%" width="115%" height="160%"><feGaussianBlur stdDeviation="2.5" result="b"/><feMerge><feMergeNode in="b"/><feMergeNode in="SourceGraphic"/></feMerge></filter>
    <filter id="sg" x="-100%" y="-100%" width="300%" height="300%"><feGaussianBlur stdDeviation="1.3" result="b"/><feMerge><feMergeNode in="b"/><feMergeNode in="SourceGraphic"/></feMerge></filter>
  </defs>

  <!-- Book pages -->
  <path d="M6 16 Q6 12 10 12 L40 14 L40 62 L10 60 Q6 60 6 56 Z" fill="url(#bk)" filter="url(#glow)"/>
  <path d="M44 14 L74 12 Q78 12 78 16 L78 56 Q78 60 74 60 L44 62 Z" fill="url(#bk)" filter="url(#glow)"/>
  <rect x="40" y="14" width="4" height="48" fill="url(#sp)"/>
  <path d="M6 16 Q6 12 10 12 L40 14 L40 36 Q24 32 6 34 Z" fill="url(#shine)"/>
  <path d="M44 14 L74 12 Q78 12 78 16 L78 36 Q62 32 44 36 Z" fill="url(#shine)"/>
  <line x1="50" y1="25" x2="72" y2="24" stroke="rgba(255,255,255,0.28)" stroke-width="1.5" stroke-linecap="round"/>
  <line x1="50" y1="32" x2="72" y2="31" stroke="rgba(255,255,255,0.2)" stroke-width="1.5" stroke-linecap="round"/>
  <line x1="50" y1="39" x2="72" y2="38" stroke="rgba(255,255,255,0.2)" stroke-width="1.5" stroke-linecap="round"/>
  <path d="M23 37 L25 31 L27 37 L33 37 L28 41 L30 47 L25 43 L20 47 L22 41 L17 37 Z" fill="white" opacity="0.9" filter="url(#sg)">
    <animate attributeName="opacity" values="0.9;0.4;0.9" dur="2.2s" repeatCount="indefinite"/>
  </path>
  <path d="M6 56 Q42 68 78 56" stroke="rgba(255,255,255,0.18)" stroke-width="1.5" fill="none"/>

  <!-- Graduation cap -->
  <path d="M20 14 L42 6 L64 14 L42 22 Z" fill="url(#cp)"/>
  <path d="M20 14 L42 6 L64 14 L42 12 Z" fill="rgba(255,255,255,0.22)"/>
  <path d="M30 16 Q42 21 54 16 L54 20 Q42 25 30 20 Z" fill="#5B21B6"/>
  <line x1="64" y1="14" x2="70" y2="20" stroke="url(#tsl)" stroke-width="2" stroke-linecap="round"/>
  <circle cx="70" cy="23" r="3" fill="url(#tsl)"><animate attributeName="cy" values="23;27;23" dur="2s" repeatCount="indefinite" calcMode="spline" keySplines="0.4 0 0.2 1;0.4 0 0.2 1"/></circle>
  <line x1="70" y1="20" x2="70" y2="23" stroke="url(#tsl)" stroke-width="2" stroke-linecap="round"><animate attributeName="y2" values="23;27;23" dur="2s" repeatCount="indefinite" calcMode="spline" keySplines="0.4 0 0.2 1;0.4 0 0.2 1"/></line>

  <!-- Stars near icon -->
  <g transform="translate(4,5)"><path d="M0-4.5 L1-1 L4.5 0 L1 1 L0 4.5 L-1 1 L-4.5 0 L-1-1 Z" fill="#FBBF24" filter="url(#sg)"><animateTransform attributeName="transform" type="rotate" values="0;360" dur="8s" repeatCount="indefinite"/><animate attributeName="opacity" values="1;0.4;1" dur="2.4s" repeatCount="indefinite"/></path></g>
  <g transform="translate(70,4)"><path d="M0-3.5 L0.8-0.8 L3.5 0 L0.8 0.8 L0 3.5 L-0.8 0.8 L-3.5 0 L-0.8-0.8 Z" fill="#38BDD1" filter="url(#sg)"><animateTransform attributeName="transform" type="rotate" values="0;-360" dur="6s" repeatCount="indefinite"/><animate attributeName="opacity" values="0.5;1;0.5" dur="1.8s" repeatCount="indefinite"/></path></g>
  <g transform="translate(42,3)"><path d="M0-2.5 L0.6-0.6 L2.5 0 L0.6 0.6 L0 2.5 L-0.6 0.6 L-2.5 0 L-0.6-0.6 Z" fill="#FCD34D" filter="url(#sg)"><animate attributeName="opacity" values="0.3;1;0.3" dur="3s" repeatCount="indefinite"/></path></g>

  <!-- Stars near wordmark -->
  <g transform="translate(93,9)"><path d="M0-3 L0.7-0.7 L3 0 L0.7 0.7 L0 3 L-0.7 0.7 L-3 0 L-0.7-0.7 Z" fill="#A78BFA" filter="url(#sg)"><animate attributeName="opacity" values="0.2;1;0.2" dur="2.8s" repeatCount="indefinite"/><animateTransform attributeName="transform" type="rotate" values="0;360" dur="5s" repeatCount="indefinite"/></path></g>
  <g transform="translate(183,7)"><path d="M0-2.8 L0.65-0.65 L2.8 0 L0.65 0.65 L0 2.8 L-0.65 0.65 L-2.8 0 L-0.65-0.65 Z" fill="#34D399" filter="url(#sg)"><animate attributeName="opacity" values="0.1;0.9;0.1" dur="3.5s" repeatCount="indefinite" begin="1.2s"/><animateTransform attributeName="transform" type="rotate" values="0;-360" dur="7s" repeatCount="indefinite"/></path></g>
  <g transform="translate(272,9)"><path d="M0-3.5 L0.8-0.8 L3.5 0 L0.8 0.8 L0 3.5 L-0.8 0.8 L-3.5 0 L-0.8-0.8 Z" fill="#FB923C" filter="url(#sg)"><animateTransform attributeName="transform" type="rotate" values="0;360" dur="4.5s" repeatCount="indefinite"/><animate attributeName="opacity" values="0.4;1;0.4" dur="1.5s" repeatCount="indefinite"/></path></g>

  <!-- Twinkling dots scattered -->
  <circle cx="140" cy="11" r="1.8" fill="#818CF8"><animate attributeName="opacity" values="0;1;0" dur="2.1s" repeatCount="indefinite" begin="0.6s"/><animate attributeName="r" values="1;2.2;1" dur="2.1s" repeatCount="indefinite" begin="0.6s"/></circle>
  <circle cx="228" cy="8" r="1.5" fill="#F9A8D4"><animate attributeName="opacity" values="0;0.9;0" dur="2.7s" repeatCount="indefinite" begin="1.4s"/></circle>
  <circle cx="257" cy="62" r="1.5" fill="#60A5FA"><animate attributeName="opacity" values="0;0.8;0" dur="3s" repeatCount="indefinite" begin="0.3s"/></circle>
  <circle cx="108" cy="64" r="1.2" fill="#FCD34D"><animate attributeName="opacity" values="0;1;0" dur="2.4s" repeatCount="indefinite" begin="1.8s"/></circle>

  <!-- Sparkle cross near + -->
  <g transform="translate(282,58)">
    <line x1="-4" y1="0" x2="4" y2="0" stroke="#F472B6" stroke-width="1.5" stroke-linecap="round"><animate attributeName="opacity" values="0;1;0" dur="2.2s" repeatCount="indefinite" begin="0.9s"/></line>
    <line x1="0" y1="-4" x2="0" y2="4" stroke="#F472B6" stroke-width="1.5" stroke-linecap="round"><animate attributeName="opacity" values="0;1;0" dur="2.2s" repeatCount="indefinite" begin="0.9s"/></line>
  </g>
  <!-- Sparkle cross near 9 -->
  <g transform="translate(86,60)">
    <line x1="-3" y1="0" x2="3" y2="0" stroke="#A78BFA" stroke-width="1.2" stroke-linecap="round"><animate attributeName="opacity" values="0;0.9;0" dur="3s" repeatCount="indefinite" begin="2s"/></line>
    <line x1="0" y1="-3" x2="0" y2="3" stroke="#A78BFA" stroke-width="1.2" stroke-linecap="round"><animate attributeName="opacity" values="0;0.9;0" dur="3s" repeatCount="indefinite" begin="2s"/></line>
  </g>

  <!-- Shooting star comet -->
  <g opacity="0">
    <line x1="90" y1="20" x2="110" y2="16" stroke="url(#txt)" stroke-width="1.2" stroke-linecap="round"/>
    <circle cx="90" cy="20" r="1.5" fill="white"/>
    <animate attributeName="opacity" values="0;0.9;0;0;0;0" dur="5s" repeatCount="indefinite" begin="3s"/>
    <animateTransform attributeName="transform" type="translate" values="0 0;160 -10;160 -10;160 -10;160 -10;160 -10" dur="5s" repeatCount="indefinite" begin="3s" calcMode="spline" keySplines="0.2 0 0.8 1;1 0 1 0;1 0 1 0;1 0 1 0;1 0 1 0"/>
  </g>

  <!-- Wordmark: 9rayti+ inline (tspan for seamless +) -->
  <text x="88" y="54" font-family="Nunito,Poppins,sans-serif" font-size="48" font-weight="800" letter-spacing="-0.5" filter="url(#tg)"><tspan fill="url(#txt)">9rayti</tspan><tspan fill="url(#pl)" font-size="50" font-weight="900" dy="1">+</tspan></text>
  <text x="88" y="54" font-family="Nunito,Poppins,sans-serif" font-size="48" font-weight="800" letter-spacing="-0.5" fill="url(#shim)">9rayti+</text>

  <!-- Pulse ring -->
  <circle cx="42" cy="37" r="34" stroke="#4F46E5" stroke-width="0.8" fill="none" stroke-opacity="0.12"><animate attributeName="r" values="30;38;30" dur="3.5s" repeatCount="indefinite"/><animate attributeName="stroke-opacity" values="0.3;0;0.3" dur="3.5s" repeatCount="indefinite"/></circle>
</svg>